<svg xmlns="http://www.w3.org/2000/svg" version="1.1" xmlns:xlink="http://www.w3.org/1999/xlink" xmlns:svgjs="http://svgjs.dev/svgjs" width="1000" height="1000" viewBox="0 0 1000 1000"><rect width="1000" height="1000" fill="#ffffff"></rect><g transform="matrix(0.7,0,0,0.7,149.57575757575756,282.1265587044535)"><svg viewBox="0 0 396 247" data-background-color="#ffffff" preserveAspectRatio="xMidYMid meet" height="623" width="1000" xmlns="http://www.w3.org/2000/svg" xmlns:xlink="http://www.w3.org/1999/xlink"><g id="tight-bounds" transform="matrix(1,0,0,1,0.2400000000000091,-0.09999999999999432)"><svg viewBox="0 0 395.52 247.2" height="247.2" width="395.52"><g><svg></svg></g><g><svg viewBox="0 0 395.52 247.2" height="247.2" width="395.52"><g transform="matrix(1,0,0,1,134.08665227963525,47.215199999999996)"><svg viewBox="0 0 127.34669544072949 152.7696" height="152.7696" width="127.34669544072949"><g><svg viewBox="0 0 127.34669544072949 152.7696" height="152.7696" width="127.34669544072949"><g><svg viewBox="0 0 127.34669544072949 152.7696" height="152.7696" width="127.34669544072949"><g><svg viewBox="0 0 127.34669544072949 152.7696" height="152.7696" width="127.34669544072949"><g id="textblocktransform"><svg viewBox="0 0 127.34669544072949 152.7696" height="152.7696" width="127.34669544072949" id="textblock"><g><svg viewBox="0 0 127.34669544072949 152.7696" height="152.7696" width="127.34669544072949"><g transform="matrix(1,0,0,1,0,0)"><svg width="127.34669544072949" viewBox="0 -33.27000045776367 27.729999542236328 33.27000045776367" height="152.7696" data-palette-color="#2a160c"><path d="M15.98-11.88L15.98-11.88 23.56-33.27 27.73-33.27 15.75 0 11.93 0 0-33.27 4.1-33.27 11.73-11.73Q13.09-7.96 13.83-4.52L13.83-4.52Q14.69-8.29 15.98-11.88Z" opacity="1" transform="matrix(1,0,0,1,0,0)" fill="#000000" class="undefined-text-0" data-fill-palette-color="primary" id="text-0"></path></svg></g></svg></g></svg></g></svg></g></svg></g></svg></g></svg></g><path d="M79.132 41.215L79.132 0 326.332 0 326.332 247.2 79.132 247.2 79.132 205.985 92.909 205.985 92.909 233.423 312.555 233.423 312.555 13.777 92.909 13.777 92.909 41.215Z" fill="#000000" stroke="transparent" data-fill-palette-color="primary"></path></svg></g><defs></defs></svg><rect width="395.52" height="247.2" fill="none" stroke="none" visibility="hidden"></rect></g></svg></g></svg>